<?xml version="1.0" encoding="UTF-8" standalone="no"?>
<svg
   width="700pt"
   height="700pt"
   version="1.1"
   viewBox="0 0 700 700"
   id="svg2813"
   sodipodi:docname="noun-calendar-5656408.svg"
   inkscape:version="1.2.2 (732a01da63, 2022-12-09)"
   xmlns:inkscape="http://www.inkscape.org/namespaces/inkscape"
   xmlns:sodipodi="http://sodipodi.sourceforge.net/DTD/sodipodi-0.dtd"
   xmlns="http://www.w3.org/2000/svg"
   xmlns:svg="http://www.w3.org/2000/svg">
  <sodipodi:namedview
     id="namedview2815"
     pagecolor="#505050"
     bordercolor="#eeeeee"
     borderopacity="1"
     inkscape:showpageshadow="0"
     inkscape:pageopacity="0"
     inkscape:pagecheckerboard="0"
     inkscape:deskcolor="#505050"
     inkscape:document-units="pt"
     showgrid="false"
     inkscape:zoom="0.60535714"
     inkscape:cx="467.49263"
     inkscape:cy="336.99115"
     inkscape:window-width="1366"
     inkscape:window-height="745"
     inkscape:window-x="-8"
     inkscape:window-y="-8"
     inkscape:window-maximized="1"
     inkscape:current-layer="g2811" />
  <defs
     id="defs2775">
    <symbol
       id="l"
       overflow="visible">
      <path
         d="m29.312-1.75c-1.5117 0.78125-3.0898 1.3711-4.7344 1.7656-1.6367 0.40625-3.3398 0.60938-5.1094 0.60938-5.3125 0-9.5273-1.4844-12.641-4.4531-3.1055-2.9688-4.6562-7-4.6562-12.094s1.5508-9.125 4.6562-12.094c3.1133-2.9688 7.3281-4.4531 12.641-4.4531 1.7695 0 3.4727 0.19922 5.1094 0.59375 1.6445 0.39844 3.2227 0.99219 4.7344 1.7812v6.5938c-1.5312-1.0391-3.0391-1.8008-4.5156-2.2812-1.4805-0.48828-3.0391-0.73438-4.6719-0.73438-2.9375 0-5.2461 0.94531-6.9219 2.8281-1.6797 1.875-2.5156 4.4648-2.5156 7.7656 0 3.293 0.83594 5.8828 2.5156 7.7656 1.6758 1.875 3.9844 2.8125 6.9219 2.8125 1.6328 0 3.1914-0.23828 4.6719-0.71875 1.4766-0.48828 2.9844-1.2539 4.5156-2.2969z"
         id="path2739" />
    </symbol>
    <symbol
       id="h"
       overflow="visible">
      <path
         d="m21.453-17.406c-0.67969-0.3125-1.3516-0.53906-2.0156-0.6875-0.65625-0.15625-1.3203-0.23438-1.9844-0.23438-1.9688 0-3.4844 0.63281-4.5469 1.8906-1.0547 1.2617-1.5781 3.0703-1.5781 5.4219v11.016h-7.6562v-23.922h7.6562v3.9219c0.97656-1.5625 2.1016-2.7031 3.375-3.4219 1.2812-0.71875 2.8125-1.0781 4.5938-1.0781 0.25 0 0.52344 0.011719 0.82812 0.03125 0.30078 0.023438 0.73438 0.070312 1.2969 0.14062z"
         id="path2742" />
    </symbol>
    <symbol
       id="b"
       overflow="visible">
      <path
         d="m27.562-12.031v2.1875h-17.891c0.1875 1.793 0.83203 3.1367 1.9375 4.0312 1.1133 0.89844 2.6719 1.3438 4.6719 1.3438 1.6016 0 3.25-0.23438 4.9375-0.70312 1.6875-0.47656 3.4219-1.2031 5.2031-2.1719v5.8906c-1.8047 0.6875-3.6094 1.2031-5.4219 1.5469-1.8125 0.35156-3.6211 0.53125-5.4219 0.53125-4.3359 0-7.7031-1.0977-10.109-3.2969-2.3984-2.207-3.5938-5.2969-3.5938-9.2656 0-3.9062 1.1758-6.9727 3.5312-9.2031 2.3633-2.2383 5.6094-3.3594 9.7344-3.3594 3.7578 0 6.7695 1.1367 9.0312 3.4062 2.2578 2.2617 3.3906 5.2812 3.3906 9.0625zm-7.8594-2.5312c0-1.457-0.42969-2.6289-1.2812-3.5156-0.84375-0.89453-1.9492-1.3438-3.3125-1.3438-1.4922 0-2.6992 0.41797-3.625 1.25-0.91797 0.83594-1.4922 2.0391-1.7188 3.6094z"
         id="path2745" />
    </symbol>
    <symbol
       id="a"
       overflow="visible">
      <path
         d="m14.391-10.766c-1.5938 0-2.793 0.27344-3.5938 0.8125-0.80469 0.54297-1.2031 1.3398-1.2031 2.3906 0 0.96875 0.32031 1.7305 0.96875 2.2812 0.64453 0.54297 1.5469 0.8125 2.7031 0.8125 1.4375 0 2.6445-0.51562 3.625-1.5469 0.98828-1.0312 1.4844-2.3203 1.4844-3.875v-0.875zm11.688-2.8906v13.656h-7.7031v-3.5469c-1.0312 1.4492-2.1875 2.5078-3.4688 3.1719s-2.8398 1-4.6719 1c-2.4805 0-4.4961-0.72266-6.0469-2.1719-1.543-1.4453-2.3125-3.3203-2.3125-5.625 0-2.8125 0.96094-4.8672 2.8906-6.1719 1.9375-1.3125 4.9688-1.9688 9.0938-1.9688h4.5156v-0.60938c0-1.207-0.48047-2.0938-1.4375-2.6562-0.94922-0.5625-2.4375-0.84375-4.4688-0.84375-1.6367 0-3.1562 0.16797-4.5625 0.5-1.4062 0.32422-2.7188 0.8125-3.9375 1.4688v-5.8281c1.6445-0.40625 3.2891-0.70703 4.9375-0.90625 1.6562-0.20703 3.3047-0.3125 4.9531-0.3125 4.3203 0 7.4375 0.85547 9.3438 2.5625 1.9141 1.6992 2.875 4.4609 2.875 8.2812z"
         id="path2748" />
    </symbol>
    <symbol
       id="g"
       overflow="visible">
      <path
         d="m12.031-30.719v6.7969h7.875v5.4688h-7.875v10.141c0 1.1172 0.21875 1.8711 0.65625 2.2656 0.4375 0.38672 1.3125 0.57812 2.625 0.57812h3.9375v5.4688h-6.5625c-3.0234 0-5.1641-0.62891-6.4219-1.8906-1.2617-1.2578-1.8906-3.3984-1.8906-6.4219v-10.141h-3.7969v-5.4688h3.7969v-6.7969z"
         id="path2751" />
    </symbol>
    <symbol
       id="f"
       overflow="visible">
      <path
         d="m19.953-20.422v-12.812h7.6875v33.234h-7.6875v-3.4531c-1.0547 1.4062-2.2148 2.4375-3.4844 3.0938-1.2734 0.65625-2.7422 0.98438-4.4062 0.98438-2.9492 0-5.3711-1.1719-7.2656-3.5156-1.8867-2.3438-2.8281-5.3594-2.8281-9.0469s0.94141-6.7031 2.8281-9.0469c1.8945-2.3438 4.3164-3.5156 7.2656-3.5156 1.6562 0 3.1172 0.33594 4.3906 1 1.2812 0.65625 2.4453 1.6836 3.5 3.0781zm-5.0469 15.484c1.6445 0 2.8945-0.59766 3.75-1.7969 0.86328-1.1953 1.2969-2.9297 1.2969-5.2031 0-2.2812-0.43359-4.0195-1.2969-5.2188-0.85547-1.1953-2.1055-1.7969-3.75-1.7969-1.625 0-2.8711 0.60156-3.7344 1.7969-0.85547 1.1992-1.2812 2.9375-1.2812 5.2188 0 2.2734 0.42578 4.0078 1.2812 5.2031 0.86328 1.1992 2.1094 1.7969 3.7344 1.7969z"
         id="path2754" />
    </symbol>
    <symbol
       id="e"
       overflow="visible">
      <path
         d="m16.406-4.9375c1.6328 0 2.8828-0.59766 3.75-1.7969 0.86328-1.1953 1.2969-2.9297 1.2969-5.2031 0-2.2812-0.43359-4.0195-1.2969-5.2188-0.86719-1.1953-2.1172-1.7969-3.75-1.7969-1.6367 0-2.8906 0.60547-3.7656 1.8125-0.875 1.1992-1.3125 2.9336-1.3125 5.2031 0 2.2617 0.4375 3.9961 1.3125 5.2031 0.875 1.1992 2.1289 1.7969 3.7656 1.7969zm-5.0781-15.484c1.0508-1.3945 2.2188-2.4219 3.5-3.0781 1.2812-0.66406 2.7539-1 4.4219-1 2.9453 0 5.3672 1.1719 7.2656 3.5156 1.8945 2.3438 2.8438 5.3594 2.8438 9.0469s-0.94922 6.7031-2.8438 9.0469c-1.8984 2.3438-4.3203 3.5156-7.2656 3.5156-1.668 0-3.1406-0.33594-4.4219-1s-2.4492-1.6914-3.5-3.0781v3.4531h-7.6562v-33.234h7.6562z"
         id="path2757" />
    </symbol>
    <symbol
       id="d"
       overflow="visible">
      <path
         d="m0.53125-23.922h7.6562l6.4219 16.234 5.4688-16.234h7.6562l-10.062 26.188c-1.0117 2.6641-2.1953 4.5234-3.5469 5.5781-1.3438 1.0625-3.1211 1.5938-5.3281 1.5938h-4.4219v-5.0156h2.3906c1.3008 0 2.2422-0.21094 2.8281-0.625 0.59375-0.40625 1.0547-1.1484 1.3906-2.2188l0.20312-0.65625z"
         id="path2760" />
    </symbol>
    <symbol
       id="c"
       overflow="visible">
      <path
         d="m4.0156-31.891h8.2188v11.641l11.859-11.641h9.5469l-15.359 15.094 16.938 16.797h-10.281l-12.703-12.562v12.562h-8.2188z"
         id="path2763" />
    </symbol>
    <symbol
       id="k"
       overflow="visible">
      <path
         d="m22.359-23.172v5.7969c-1.6367-0.67578-3.2148-1.1875-4.7344-1.5312-1.5234-0.34375-2.9609-0.51562-4.3125-0.51562-1.4609 0-2.543 0.18359-3.25 0.54688-0.69922 0.36719-1.0469 0.92188-1.0469 1.6719 0 0.61719 0.26562 1.0898 0.79688 1.4219 0.53125 0.32422 1.4883 0.5625 2.875 0.71875l1.3438 0.1875c3.9141 0.5 6.5508 1.3242 7.9062 2.4688 1.3516 1.1367 2.0312 2.9219 2.0312 5.3594 0 2.5547-0.94531 4.4688-2.8281 5.75-1.875 1.2812-4.6797 1.9219-8.4062 1.9219-1.5859 0-3.2188-0.125-4.9062-0.375s-3.4219-0.625-5.2031-1.125v-5.8125c1.5195 0.74219 3.082 1.2969 4.6875 1.6719 1.6016 0.36719 3.2344 0.54688 4.8906 0.54688 1.4883 0 2.6094-0.20312 3.3594-0.60938 0.75781-0.41406 1.1406-1.0312 1.1406-1.8438 0-0.6875-0.26172-1.1953-0.78125-1.5312-0.52344-0.33203-1.5586-0.59375-3.1094-0.78125l-1.3438-0.17188c-3.4062-0.42578-5.793-1.2109-7.1562-2.3594-1.3672-1.1562-2.0469-2.9102-2.0469-5.2656 0-2.5312 0.86719-4.4062 2.6094-5.625 1.7383-1.2266 4.3984-1.8438 7.9844-1.8438 1.4062 0 2.8828 0.10938 4.4375 0.32812 1.5508 0.21094 3.2383 0.54297 5.0625 1z"
         id="path2766" />
    </symbol>
    <symbol
       id="j"
       overflow="visible">
      <path
         d="m27.734-14.562v14.562h-7.7031v-11.156c0-2.0625-0.046875-3.4844-0.14062-4.2656-0.085937-0.78125-0.24219-1.3594-0.46875-1.7344-0.30469-0.5-0.71094-0.88281-1.2188-1.1562-0.51172-0.28125-1.0938-0.42188-1.75-0.42188-1.5938 0-2.8516 0.61719-3.7656 1.8438-0.90625 1.2305-1.3594 2.9375-1.3594 5.125v11.766h-7.6562v-23.922h7.6562v3.5c1.1445-1.3945 2.3633-2.4219 3.6562-3.0781 1.3008-0.66406 2.7383-1 4.3125-1 2.7578 0 4.8516 0.85156 6.2812 2.5469 1.4375 1.6875 2.1562 4.1523 2.1562 7.3906z"
         id="path2769" />
    </symbol>
    <symbol
       id="i"
       overflow="visible">
      <path
         d="m27.734-14.562v14.562h-7.7031v-11.109c0-2.0938-0.046875-3.5312-0.14062-4.3125-0.085937-0.78125-0.24219-1.3594-0.46875-1.7344-0.30469-0.5-0.71094-0.88281-1.2188-1.1562-0.51172-0.28125-1.0938-0.42188-1.75-0.42188-1.5938 0-2.8516 0.61719-3.7656 1.8438-0.90625 1.2305-1.3594 2.9375-1.3594 5.125v11.766h-7.6562v-33.234h7.6562v12.812c1.1445-1.3945 2.3633-2.4219 3.6562-3.0781 1.3008-0.66406 2.7383-1 4.3125-1 2.7578 0 4.8516 0.85156 6.2812 2.5469 1.4375 1.6875 2.1562 4.1523 2.1562 7.3906z"
         id="path2772" />
    </symbol>
  </defs>
  <g
     id="g2811">
    <path
       d="m 195.10357,186.31081 v 0.009 c 5.58219,3.39665 9.24248,9.11083 9.24248,15.58141 0,10.43309 -9.50504,18.88978 -21.2315,18.88978 -11.72646,0 -21.2315,-8.45669 -21.2315,-18.88978 0,-6.47106 3.66029,-12.18572 9.23724,-15.58619 l 0.042,0.009 0.0367,19.01538 c 1.6279,4.462 6.34378,7.6998 11.91548,7.6998 5.56648,0 10.28222,-3.23314 11.91024,-7.70447 l 0.0368,-19.02494 0.042,0.009 z m 300.72029,-0.014 0.0315,0.0187 c 5.5822,3.40144 9.23724,9.1155 9.23724,15.58621 0,10.43309 -9.51028,18.88978 -21.23688,18.88978 -11.72122,0 -21.2315,-8.45669 -21.2315,-18.88978 0,-6.47107 3.66029,-12.18573 9.23724,-15.58621 l 0.042,0.009 0.042,19.01537 c 1.62265,4.46199 6.34378,7.6998 11.91024,7.6998 5.56647,0 10.28746,-3.23314 11.91024,-7.70446 z M 215.64541,105.47249 v 0.009 c -24.56148,-0.009 -44.47417,17.70805 -44.47417,39.55934 l -0.042,18.14224 c -19.11012,4.66281 -33.1466,20.23536 -33.1466,38.71848 0,22.1838 20.2071,40.16217 45.14098,40.16217 24.93388,0 45.14098,-17.97837 45.14098,-40.16217 0,-18.48312 -14.03648,-34.05615 -33.15196,-38.73284 l -0.042,-18.12788 c 0,-10.11063 9.21103,-18.30131 20.57546,-18.30131 5.28294,0 10.09844,1.77081 13.74341,4.6816 -8.08715,-0.009 -8.22373,-0.009 -8.22373,-0.009 -6.60633,0 -11.95743,4.76569 -11.95743,10.63859 v 0.009 c 0,5.7936 5.20416,10.50307 11.6739,10.63392 l 230.67904,0.0234 c 6.54852,-0.0701 11.78414,-4.81233 11.78414,-10.65737 v -0.009 c 0,-5.87302 -5.35123,-10.63858 -11.95742,-10.63858 -0.13654,0 -193.96453,0.0187 -193.96453,0.0187 -6.24382,-15.1568 -22.58656,-25.95865 -41.76926,-25.95865 v 0.009 z M 62.294066,251.10789 v 0.009 c -6.601082,-0.009 -11.952181,4.75169 -11.952181,10.62458 v 0.009 c 0,5.87768 5.351225,10.63858 11.952181,10.63858 6.606323,0 11.957423,-4.76102 11.957423,-10.63858 v -0.009 c 0,-5.87301 -5.351226,-10.63391 -11.957423,-10.63391 v 0.009 z m 41.154944,0 h -0.11553 c -6.601079,0 -11.920719,4.75636 -11.920719,10.62926 0,5.8729 5.351225,10.63858 11.952179,10.63858 l 501.3394,0.009 c 6.59571,0 11.94694,-4.76102 11.94694,-10.63392 0.006,-5.87302 -5.34599,-10.63392 -11.94694,-10.63392 z m 18.0494,94.73836 v 0.009 l 41.92258,-0.004 v 37.28917 l -41.92258,0.009 v -37.30352 0.009 z m 191.04726,0 v 0.009 l 41.92258,-0.004 v 37.28917 l -41.92258,0.009 v -37.30352 0.009 z m 191.03381,0 v 0.009 l 41.92258,-0.004 v 37.28917 l -41.92258,0.009 v -37.30352 0.009 z M 109.54704,324.56908 v 0.014 c -3.16665,-0.014 -6.20719,1.10731 -8.44959,3.10239 -2.242386,1.99508 -3.502726,4.70027 -3.502726,7.52231 v 58.58069 c 0,2.82205 1.26034,5.52724 3.502726,7.52231 2.2424,1.9904 5.28294,3.11173 8.44959,3.11173 l 0.006,0.014 65.83205,-0.0234 c 6.60109,0 11.95219,-4.76101 11.95219,-10.63391 v -58.56156 c 0,-5.87302 -5.35123,-10.63392 -11.95219,-10.63392 l -65.83205,-0.014 -0.006,0.014 z m 191.04725,0 v 0.014 c -3.16664,-0.014 -6.20718,1.10731 -8.44958,3.10239 -2.2424,1.99508 -3.50273,4.70027 -3.50273,7.52231 v 58.58069 c 0,2.82205 1.26033,5.52724 3.50273,7.52231 2.2424,1.9904 5.28294,3.11173 8.44958,3.11173 l 0.006,0.014 65.82668,-0.0234 c 6.60633,0 11.95742,-4.76101 11.95742,-10.63391 v -58.56156 c 0,-5.87302 -5.35122,-10.63392 -11.95742,-10.63392 l -65.82668,-0.014 -0.006,0.014 z m 191.04726,0 v 0.014 c -3.17189,-0.014 -6.21243,1.10731 -8.45482,3.10239 -2.2424,1.99508 -3.50274,4.70027 -3.50274,7.52231 v 58.58069 c 0,2.82205 1.26034,5.52724 3.50274,7.52231 2.24239,1.9904 5.28293,3.11173 8.45482,3.11173 v 0.014 l 65.83205,-0.0234 c 6.60109,0 11.95219,-4.76101 11.95219,-10.63391 v -58.56156 c 0,-5.87302 -5.35124,-10.63392 -11.95219,-10.63392 l -65.83205,-0.014 v 0.014 z M 121.51186,481.12475 v 0.014 l 41.92258,-0.004 v 37.28916 l -41.92258,0.004 v -37.30352 0.014 z m 191.04725,0 v 0.014 l 41.92258,-0.004 v 37.28916 l -41.92258,0.004 v -37.30352 0.014 z m 191.03382,0 v 0.014 l 41.92258,-0.004 v 37.28916 l -41.92258,0.004 v -37.30352 0.014 z M 109.56048,459.85237 v 0.009 c -3.16664,-0.009 -6.20719,1.11199 -8.44958,3.10707 -2.242395,1.99507 -3.502734,4.70026 -3.502734,7.52231 v 58.5759 c 0,2.82205 1.260339,5.52724 3.502734,7.52231 2.24239,1.99506 5.28294,3.1164 8.44958,3.1164 l 0.006,0.009 65.83204,-0.0234 c 6.6011,0 11.95219,-4.76103 11.95219,-10.63393 v -58.55677 c 0,-5.87302 -5.35123,-10.63392 -11.95219,-10.63858 l -65.83204,-0.009 -0.006,0.009 z m 191.04726,0 v 0.009 c -3.16665,-0.009 -6.20719,1.11199 -8.44959,3.10707 -2.24239,1.99507 -3.50273,4.70026 -3.50273,7.52231 v 58.5759 c 0,2.82205 1.26034,5.52724 3.50273,7.52231 2.2424,1.99506 5.28294,3.1164 8.44959,3.1164 l 0.006,0.009 65.82668,-0.0234 c 6.60633,0 11.95742,-4.76103 11.95742,-10.63393 v -58.55677 c 0,-5.87302 -5.35123,-10.63392 -11.95742,-10.63858 l -65.82668,-0.009 -0.006,0.009 z m 191.04725,0 v 0.009 c -3.17188,-0.009 -6.21243,1.11199 -8.45482,3.10707 -2.2424,1.99507 -3.50274,4.70026 -3.50274,7.52231 v 58.5759 c 0,2.82205 1.26034,5.52724 3.50274,7.52231 2.24239,1.99506 5.28294,3.1164 8.45482,3.1164 v 0.009 l 65.83206,-0.0234 c 6.60108,0 11.95218,-4.76103 11.95218,-10.63393 v -58.55677 c 0,-5.87302 -5.35123,-10.63392 -11.95218,-10.63858 l -65.83206,-0.009 v 0.009 z m 24.77122,-354.37629 v 0.009 c -24.56553,-0.009 -44.47956,17.70805 -44.47956,39.55934 v 18.13266 l -0.042,0.009 c -19.1101,4.66281 -33.14658,20.23537 -33.14658,38.71848 0,22.18382 20.21248,40.16217 45.14098,40.16217 24.93388,0 45.14636,-17.97836 45.14636,-40.16217 0,-18.48311 -14.04186,-34.05614 -33.15196,-38.73284 l -0.042,0.014 v -18.14187 c 0,-10.11063 9.21103,-18.30131 20.57545,-18.30131 5.2777,0 10.0932,1.76614 13.73266,4.67694 -5.93415,0.009 -6.15462,0.014 -6.15462,0.014 -6.39096,0.20558 -11.49537,4.88242 -11.49537,10.61991 v 0.009 c 0,5.79361 5.20416,10.50308 11.67914,10.63392 l 117.46361,0.0281 0.0472,0.009 c -1.09229,2.98555 -1.68044,6.18604 -1.68044,9.50325 l -0.006,416.90766 c -0.0103,6.27479 -5.71878,11.36281 -12.77144,11.36281 l -587.418881,-0.009 c -7.052659,0 -12.760957,-5.08803 -12.771439,-11.36281 V 164.0703 c 0.01032,-6.27946 5.71878,-11.36282 12.771439,-11.36282 107.113361,-0.009 107.165801,-0.009 107.165801,-0.009 6.60108,0 11.95218,-4.76567 11.95218,-10.63857 v -0.009 c 0,-5.87302 -5.35124,-10.63859 -11.95218,-10.63859 -0.11033,0 -107.249157,0.0748 -107.249157,0.0748 -20.201372,-0.009 -36.5595685,14.55877 -36.5972106,32.54671 v 415.13744 c 0.036758,18.02979 16.4630576,32.62085 36.7225826,32.63042 l 587.338235,0.009 c 20.25952,-0.009 36.68628,-14.60062 36.72258,-32.62563 V 162.24108 c 0,-5.27498 4.80502,-9.55003 10.73392,-9.55003 5.92891,0 10.73917,4.27505 10.73917,9.55003 v 391.17984 c 0,5.87302 5.35123,10.63393 11.95219,10.63393 6.60108,0 11.95218,-4.76102 11.95218,-10.63393 V 162.24111 c 0,-17.0203 -15.50722,-30.82313 -34.6442,-30.82313 -0.26257,0 -0.53039,0.009 -0.79823,0.009 -0.19954,0 -115.62586,-0.005 -115.62586,-0.005 l -0.042,0.009 c -6.24348,-15.15688 -22.58621,-25.95395 -41.76353,-25.95395 v 0.009 z"
       id="path2777"
       style="stroke-width:1.26805" />
  </g>
</svg>
